<?xml version="1.0" encoding="UTF-8" standalone="no"?>
<!DOCTYPE svg PUBLIC "-//W3C//DTD SVG 1.1//EN"
 "http://www.w3.org/Graphics/SVG/1.1/DTD/svg11.dtd">
<!-- Generated by graphviz version 12.1.0 (20240811.2233)
 -->
<!-- Title: SRC Pages: 1 -->
<svg width="248pt" height="322pt"
 viewBox="0.00 0.00 248.00 321.60" xmlns="http://www.w3.org/2000/svg" xmlns:xlink="http://www.w3.org/1999/xlink">
<g id="graph0" class="graph" transform="scale(1 1) rotate(0) translate(4 317.6)">
<title>SRC</title>
<polygon fill="white" stroke="none" points="-4,4 -4,-317.6 244,-317.6 244,4 -4,4"/>
<g id="group|!3rd&#45;party" class="cluster">
<title>cluster_group|!3rd&#45;party</title>
<g id="a_group|!3rd&#45;party"><a xlink:href="foo" xlink:title="3rd&#45;party">
<polygon fill="none" stroke="black" points="86,-8 86,-228.8 232,-228.8 232,-8 86,-8"/>
<text text-anchor="middle" x="120.04" y="-212.2" font-family="Times,serif" font-size="14.00">3rd&#45;party</text>
</a>
</g>
</g>
<g id="group|Core" class="cluster">
<title>cluster_group|Core</title>
<g id="a_group|Core"><a xlink:href="foo" xlink:title="Core">
<polygon fill="none" stroke="black" points="8,-152 8,-305.6 78,-305.6 78,-152 8,-152"/>
<text text-anchor="middle" x="29.61" y="-289" font-family="Times,serif" font-size="14.00">Core</text>
</a>
</g>
</g>
<!-- assembly|ElectronCgi.DotNet -->
<g id="assembly|ElectronCgi.DotNet" class="node">
<title>assembly|ElectronCgi.DotNet</title>
<g id="a_assembly|ElectronCgi.DotNet"><a xlink:href="foo" xlink:title="ElectronCgi.DotNet">
<polygon fill="none" stroke="black" points="222.18,-196 219.18,-200 198.18,-200 195.18,-196 93.82,-196 93.82,-160 222.18,-160 222.18,-196"/>
<text text-anchor="middle" x="158" y="-173.8" font-family="Times,serif" font-size="14.00">ElectronCgi.DotNet</text>
</a>
</g>
</g>
<!-- assembly|Newtonsoft.Json -->
<g id="assembly|Newtonsoft.Json" class="node">
<title>assembly|Newtonsoft.Json</title>
<g id="a_assembly|Newtonsoft.Json"><a xlink:href="foo" xlink:title="Newtonsoft.Json">
<polygon fill="none" stroke="black" points="203.86,-124 200.86,-128 179.86,-128 176.86,-124 94.14,-124 94.14,-88 203.86,-88 203.86,-124"/>
<text text-anchor="middle" x="149" y="-101.8" font-family="Times,serif" font-size="14.00">Newtonsoft.Json</text>
</a>
</g>
</g>
<!-- assembly|ElectronCgi.DotNet&#45;&gt;assembly|Newtonsoft.Json -->
<!-- assembly|ElectronCgi.DotNet&#45;&gt;assembly|Newtonsoft.Json -->
<g id="assembly|ElectronCgi.DotNet||assembly|Newtonsoft.Json" class="edge">
<title>assembly|ElectronCgi.DotNet&#45;&gt;assembly|Newtonsoft.Json</title>
<g id="a_assembly|ElectronCgi.DotNet||assembly|Newtonsoft.Json"><a xlink:href="foo" xlink:title="ElectronCgi.DotNet → Newtonsoft.Json">
<path fill="none" stroke="black" d="M161.69,-159.7C161.5,-152.32 160.61,-143.52 159.27,-135.25"/>
<polygon fill="black" stroke="black" points="162.73,-134.73 157.38,-125.59 155.86,-136.08 162.73,-134.73"/>
</a>
</g>
</g>
<!-- group|Serilog -->
<g id="group|Serilog" class="node">
<title>group|Serilog</title>
<g id="a_group|Serilog"><a xlink:href="foo" xlink:title="Serilog">
<polygon fill="none" stroke="black" points="191.22,-52 134.78,-52 134.78,-16 191.22,-16 191.22,-52"/>
<text text-anchor="middle" x="163" y="-29.8" font-family="Times,serif" font-size="14.00">Serilog</text>
</a>
</g>
</g>
<!-- assembly|ElectronCgi.DotNet&#45;&gt;group|Serilog -->
<g id="assembly|ElectronCgi.DotNet||group|Serilog" class="edge">
<title>assembly|ElectronCgi.DotNet&#45;&gt;group|Serilog</title>
<g id="a_assembly|ElectronCgi.DotNet||group|Serilog"><a xlink:href="foo" xlink:title="ElectronCgi.DotNet → Serilog&#13;&#10;Serilog&#13;&#10;Serilog.Sinks.File">
<path fill="none" stroke="black" d="M183.67,-159.72C194.92,-150.58 206.93,-138.28 213,-124 219.26,-109.28 218.91,-102.87 213,-88 208.88,-77.62 201.65,-68.09 193.94,-60.06"/>
<polygon fill="black" stroke="black" points="196.58,-57.74 186.95,-53.32 191.72,-62.78 196.58,-57.74"/>
</a>
</g>
</g>
<!-- assembly|Newtonsoft.Json&#45;&gt;group|Serilog -->
<!-- group|Serilog&#45;&gt;group|Serilog -->
<g id="group|Serilog||group|Serilog" class="edge">
<title>group|Serilog&#45;&gt;group|Serilog</title>
<g id="a_group|Serilog||group|Serilog"><a xlink:href="foo" xlink:title="Serilog → Serilog&#13;&#10;Serilog&#13;&#10;Serilog.Extensions.Logging">
<path fill="none" stroke="black" d="M191.44,-47.5C201.27,-47.64 209.22,-43.14 209.22,-34 209.22,-28.72 206.56,-24.98 202.42,-22.8"/>
<polygon fill="black" stroke="black" points="203.42,-19.43 192.92,-20.81 201.99,-26.29 203.42,-19.43"/>
</a>
</g>
</g>
<!-- assembly|Core -->
<g id="assembly|Core" class="node">
<title>assembly|Core</title>
<g id="a_assembly|Core"><a xlink:href="foo" xlink:title="*">
<polygon fill="none" stroke="black" points="70,-272.8 67,-276.8 46,-276.8 43,-272.8 16,-272.8 16,-236.8 70,-236.8 70,-272.8"/>
<text text-anchor="middle" x="43" y="-250.6" font-family="Times,serif" font-size="14.00">*</text>
</a>
</g>
</g>
<!-- assembly|Core&#45;&gt;assembly|ElectronCgi.DotNet -->
<g id="assembly|Core||assembly|ElectronCgi.DotNet" class="edge">
<title>assembly|Core&#45;&gt;assembly|ElectronCgi.DotNet</title>
<g id="a_assembly|Core||assembly|ElectronCgi.DotNet"><a xlink:href="foo" xlink:title="Core → ElectronCgi.DotNet">
<path fill="none" stroke="black" d="M70.3,-236.35C74.23,-233.82 78.22,-231.25 82,-228.8 95.19,-220.25 109.62,-210.82 122.33,-202.48"/>
<polygon fill="black" stroke="black" points="123.96,-205.6 130.4,-197.18 120.12,-199.74 123.96,-205.6"/>
</a>
</g>
</g>
<!-- assembly|Core.IL -->
<g id="assembly|Core.IL" class="node">
<title>assembly|Core.IL</title>
<g id="a_assembly|Core.IL"><a xlink:href="foo" xlink:title="*.IL">
<polygon fill="none" stroke="black" points="70,-196 67,-200 46,-200 43,-196 16,-196 16,-160 70,-160 70,-196"/>
<text text-anchor="middle" x="43" y="-173.8" font-family="Times,serif" font-size="14.00">*.IL</text>
</a>
</g>
</g>
<!-- assembly|Core&#45;&gt;assembly|Core.IL -->
<!-- assembly|Core&#45;&gt;assembly|Core.IL -->
<g id="assembly|Core||assembly|Core.IL" class="edge">
<title>assembly|Core&#45;&gt;assembly|Core.IL</title>
<g id="a_assembly|Core||assembly|Core.IL"><a xlink:href="foo" xlink:title="Core → Core.IL">
<path fill="none" stroke="black" d="M48.8,-236.45C49.7,-227.86 49.96,-217.27 49.58,-207.52"/>
<polygon fill="black" stroke="black" points="53.08,-207.5 48.9,-197.76 46.1,-207.98 53.08,-207.5"/>
</a>
</g>
</g>
</g>
</svg>
